<?xml version="1.0" standalone="yes"?>

<svg version="1.1" viewBox="0.0 0.0 960.0 720.0" fill="none" stroke="none" stroke-linecap="square" stroke-miterlimit="10" xmlns="http://www.w3.org/2000/svg" xmlns:xlink="http://www.w3.org/1999/xlink"><clipPath id="p.0"><path d="m0 0l960.0 0l0 720.0l-960.0 0l0 -720.0z" clip-rule="nonzero"></path></clipPath><g clip-path="url(#p.0)"><path fill="#000000" fill-opacity="0.0" d="m0 0l960.0 0l0 720.0l-960.0 0z" fill-rule="nonzero"></path><path fill="#000000" fill-opacity="0.0" d="m254.02362 63.92126l384.25195 0l0 592.1575l-384.25195 0z" fill-rule="nonzero"></path><path fill="#666666" d="m559.97675 457.04626q2.078125 5.71875 2.203125 9.234375q0.140625 3.515625 -1.953125 5.34375q-2.078125 1.8125 -6.890625 2.328125q-4.8125 0.53125 -12.875 0.53125q-8.078125 0 -12.890625 -0.390625q-4.8125 -0.390625 -7.296875 -1.296875q-2.46875 -0.921875 -3.640625 -2.484375q-1.15625 -1.5625 -2.203125 -3.890625l-28.890625 -81.984375l-140.01562 0l-27.59375 80.9375q-0.765625 2.34375 -2.078125 4.03125q-1.296875 1.6875 -3.78125 2.859375q-2.46875 1.171875 -7.015625 1.6875q-4.546875 0.53125 -11.84375 0.53125q-7.546875 0 -12.359375 -0.65625q-4.8125 -0.640625 -6.765625 -2.46875q-1.953125 -1.828125 -1.828125 -5.328125q0.140625 -3.515625 2.21875 -9.25l112.953125 -312.82812q1.03125 -2.859375 2.71875 -4.671875q1.703125 -1.828125 4.953125 -2.859375q3.25 -1.046875 8.328125 -1.4375q5.078125 -0.390625 12.890625 -0.390625q8.328125 0 13.78125 0.390625q5.46875 0.390625 8.84375 1.4375q3.390625 1.03125 5.203125 2.984375q1.828125 1.953125 2.875 4.8125l112.953125 312.82812zm-144.96875 -276.125l-0.25 0l-58.046875 167.85938l117.125 0l-58.828125 -167.85938z" fill-rule="nonzero"></path><path fill="#000000" fill-opacity="0.0" d="m470.08923 111.944885l89.79529 0l0 127.02362l-89.79529 0z" fill-rule="nonzero"></path><path fill="#d9d9d9" d="m541.71423 142.81989q0 1.8125 -0.15625 3.09375q-0.15625 1.28125 -0.46875 2.0625q-0.3125 0.78125 -0.78125 1.15625q-0.46875 0.375 -1.03125 0.375l-20.25 0l0 65.1875q0 0.625 -0.40625 1.125q-0.40625 0.5 -1.34375 0.8125q-0.9375 0.3125 -2.53125 0.5q-1.59375 0.1875 -3.96875 0.1875q-2.375 0 -3.96875 -0.1875q-1.59375 -0.1875 -2.53125 -0.5q-0.9375 -0.3125 -1.34375 -0.8125q-0.40625 -0.5 -0.40625 -1.125l0 -65.1875l-20.25 0q-0.625 0 -1.0625 -0.375q-0.4375 -0.375 -0.75 -1.15625q-0.3125 -0.78125 -0.46875 -2.0625q-0.15625 -1.28125 -0.15625 -3.09375q0 -1.875 0.15625 -3.1875q0.15625 -1.3125 0.46875 -2.09375q0.3125 -0.78125 0.75 -1.125q0.4375 -0.34375 1.0625 -0.34375l57.0 0q0.5625 0 1.03125 0.34375q0.46875 0.34375 0.78125 1.125q0.3125 0.78125 0.46875 2.09375q0.15625 1.3125 0.15625 3.1875z" fill-rule="nonzero"></path><path fill="#000000" fill-opacity="0.0" d="m470.08923 111.944885l72.0 0l0 127.02362l-72.0 0z" fill-rule="nonzero"></path><path fill="#999999" d="m509.33923 196.56989q0 4.8125 -0.875 8.8125q-0.875 4.0 -3.0 6.8125q-2.125 2.8125 -5.59375 4.34375q-3.46875 1.53125 -8.59375 1.53125q-1.75 0 -3.46875 -0.28125q-1.71875 -0.28125 -3.15625 -0.75q-1.4375 -0.46875 -2.5 -1.0q-1.0625 -0.53125 -1.40625 -0.90625q-0.34375 -0.375 -0.5625 -0.75q-0.21875 -0.375 -0.375 -0.90625q-0.15625 -0.53125 -0.21875 -1.3125q-0.0625 -0.78125 -0.0625 -1.90625q0 -1.375 0.09375 -2.28125q0.09375 -0.90625 0.34375 -1.4375q0.25 -0.53125 0.59375 -0.75q0.34375 -0.21875 0.84375 -0.21875q0.5 0 1.28125 0.46875q0.78125 0.46875 1.875 1.03125q1.09375 0.5625 2.53125 1.03125q1.4375 0.46875 3.375 0.46875q2.125 0 3.625 -0.53125q1.5 -0.53125 2.5 -1.96875q1.0 -1.4375 1.5 -3.96875q0.5 -2.53125 0.5 -6.59375l0 -57.875q0 -0.4375 0.25 -0.8125q0.25 -0.375 0.875 -0.625q0.625 -0.25 1.65625 -0.375q1.03125 -0.125 2.59375 -0.125q1.5 0 2.5625 0.125q1.0625 0.125 1.65625 0.375q0.59375 0.25 0.875 0.625q0.28125 0.375 0.28125 0.8125l0 58.9375z" fill-rule="nonzero"></path></g></svg>

